<?xml version="1.0" encoding="UTF-8" ?>
<!DOCTYPE svg PUBLIC "-//W3C//DTD SVG 1.1//EN" "http://www.w3.org/Graphics/SVG/1.1/DTD/svg11.dtd">
<svg width="1808pt" height="529pt" viewBox="0 0 1808 529" version="1.1" xmlns="http://www.w3.org/2000/svg">
<g id="#8257e5ff">
<path fill="#8257e5" opacity="1.00" d=" M 1139.89 0.00 L 1232.25 0.00 C 1233.38 0.79 1234.53 1.60 1235.70 2.38 C 1235.98 2.88 1236.54 3.86 1236.82 4.35 C 1238.45 7.31 1237.96 10.74 1238.02 13.97 C 1237.98 29.50 1237.99 45.02 1238.01 60.55 C 1236.48 63.26 1234.26 65.49 1231.54 67.01 C 1216.38 66.97 1201.22 67.04 1186.06 66.98 C 1183.11 67.01 1180.08 66.67 1177.27 67.71 C 1175.27 67.96 1173.28 68.14 1171.34 68.59 C 1169.99 68.98 1168.64 69.36 1167.34 69.79 C 1166.86 69.85 1165.92 69.97 1165.44 70.04 C 1161.63 72.39 1158.38 75.63 1156.03 79.44 C 1155.97 79.92 1155.85 80.86 1155.79 81.34 C 1155.34 82.66 1154.97 84.00 1154.59 85.33 C 1153.71 88.48 1153.99 91.77 1153.99 94.99 C 1154.02 102.99 1153.99 111.00 1154.00 119.00 C 1176.01 119.00 1198.02 119.00 1220.04 119.00 C 1223.86 119.04 1227.73 118.69 1231.52 119.48 C 1233.41 120.62 1235.28 121.84 1237.00 123.26 C 1237.07 123.76 1237.19 124.77 1237.25 125.28 C 1237.82 126.80 1238.04 128.42 1238.03 130.05 C 1237.98 144.03 1237.98 158.01 1238.02 171.99 C 1237.97 174.91 1238.35 177.94 1237.25 180.72 C 1237.19 181.22 1237.06 182.23 1237.00 182.73 C 1235.57 183.88 1234.09 184.96 1232.55 185.94 C 1232.09 186.03 1231.16 186.20 1230.69 186.28 C 1229.16 186.83 1227.54 187.05 1225.94 187.03 C 1201.96 186.96 1177.98 187.02 1154.00 187.00 C 1154.01 256.68 1153.98 326.36 1154.01 396.04 C 1153.91 399.26 1154.48 402.64 1153.23 405.72 C 1153.11 406.66 1153.02 407.61 1152.96 408.57 C 1151.88 410.93 1149.72 412.31 1147.53 413.51 C 1140.06 414.61 1132.45 413.71 1124.93 414.00 C 1108.43 413.75 1091.89 414.49 1075.42 413.63 C 1073.63 412.24 1072.15 410.53 1071.06 408.56 C 1070.97 408.10 1070.80 407.16 1070.72 406.70 C 1069.48 403.25 1070.10 399.54 1070.00 395.98 C 1070.00 326.32 1070.00 256.66 1070.00 187.00 C 1062.34 187.01 1054.68 186.97 1047.02 187.02 C 1044.10 187.00 1041.10 187.29 1038.31 186.32 C 1037.87 186.20 1037.01 185.96 1036.58 185.84 C 1035.49 185.08 1034.41 184.33 1033.31 183.62 C 1033.02 183.07 1032.43 181.96 1032.14 181.40 C 1032.03 180.97 1031.80 180.12 1031.68 179.69 C 1031.18 178.18 1030.94 176.60 1030.97 175.01 C 1031.02 162.00 1031.00 148.98 1030.99 135.97 C 1031.05 132.74 1030.58 129.39 1031.72 126.29 C 1031.81 125.82 1031.99 124.88 1032.07 124.42 C 1033.51 122.97 1034.96 121.52 1036.42 120.07 C 1036.88 119.99 1037.82 119.81 1038.29 119.72 C 1040.10 119.04 1042.04 118.93 1043.97 118.96 C 1052.64 119.04 1061.32 118.98 1070.00 119.00 C 1069.98 105.98 1070.03 92.97 1069.97 79.95 C 1069.94 78.34 1070.12 76.71 1070.85 75.25 C 1071.18 71.60 1070.48 67.80 1071.71 64.27 C 1071.94 62.27 1072.13 60.25 1072.65 58.30 C 1072.96 56.64 1073.25 54.97 1073.67 53.33 C 1073.82 52.91 1074.11 52.07 1074.26 51.66 C 1074.87 49.16 1075.51 46.65 1076.82 44.40 C 1076.89 43.94 1077.04 43.03 1077.11 42.57 C 1077.41 42.02 1078.02 40.93 1078.33 40.39 C 1078.96 39.08 1079.61 37.77 1080.26 36.46 C 1080.72 35.49 1081.19 34.51 1081.68 33.53 C 1082.29 32.53 1082.94 31.54 1083.61 30.56 C 1088.05 23.82 1093.82 18.03 1100.57 13.61 C 1101.51 12.96 1102.48 12.31 1103.47 11.68 C 1104.01 11.44 1105.07 10.96 1105.61 10.72 C 1107.57 9.69 1109.55 8.70 1111.57 7.76 C 1112.55 7.21 1113.53 6.66 1114.53 6.11 C 1114.99 6.04 1115.91 5.92 1116.38 5.85 C 1117.77 5.27 1119.20 4.74 1120.62 4.16 C 1121.05 4.06 1121.92 3.86 1122.35 3.76 C 1123.65 3.34 1124.99 2.98 1126.34 2.61 C 1127.97 2.24 1129.63 1.96 1131.30 1.65 C 1134.10 0.74 1137.24 1.45 1139.89 0.00 Z" />
<path fill="#8257e5" opacity="1.00" d=" M 1368.02 0.00 L 1460.52 0.00 C 1462.49 1.11 1464.19 2.64 1465.63 4.40 C 1466.47 14.25 1465.77 24.17 1466.00 34.04 C 1465.77 43.21 1466.48 52.43 1465.62 61.56 C 1464.10 63.42 1462.41 65.11 1460.56 66.62 C 1447.08 67.51 1433.51 66.74 1420.00 67.00 C 1415.43 67.27 1410.66 66.25 1406.26 67.76 C 1403.93 67.96 1401.59 68.03 1399.33 68.58 C 1397.98 68.98 1396.64 69.35 1395.34 69.79 C 1394.86 69.85 1393.92 69.97 1393.44 70.03 C 1389.64 72.39 1386.38 75.62 1384.05 79.44 C 1383.97 79.91 1383.80 80.84 1383.72 81.31 C 1383.25 82.95 1382.95 84.63 1382.64 86.29 C 1381.66 89.45 1382.00 92.78 1381.99 96.02 C 1382.02 103.68 1381.99 111.34 1382.00 119.00 C 1404.68 118.99 1427.36 119.02 1450.04 118.99 C 1453.26 119.05 1456.61 118.58 1459.71 119.73 C 1460.20 119.81 1461.17 119.97 1461.66 120.05 C 1462.99 121.49 1464.32 122.95 1465.61 124.46 C 1466.27 128.63 1465.95 132.86 1466.00 137.06 C 1466.01 151.56 1465.98 166.05 1466.01 180.55 C 1464.75 182.50 1463.27 184.30 1461.67 185.97 C 1460.67 186.04 1459.69 186.12 1458.73 186.21 C 1457.22 186.85 1455.59 187.05 1453.99 187.03 C 1430.00 186.96 1406.00 187.02 1382.00 187.00 C 1382.00 256.67 1381.99 326.35 1382.00 396.02 C 1381.89 399.57 1382.50 403.26 1381.29 406.69 C 1381.20 407.16 1381.03 408.10 1380.95 408.57 C 1379.98 410.43 1378.50 411.89 1376.70 412.94 C 1374.84 413.62 1372.92 414.15 1370.94 414.03 C 1357.28 413.97 1343.63 414.01 1329.99 414.00 C 1321.13 413.78 1312.23 414.46 1303.40 413.63 C 1301.96 412.37 1300.62 411.01 1299.37 409.59 C 1298.76 405.43 1299.02 401.23 1299.00 397.06 C 1299.00 327.04 1299.00 257.02 1299.00 187.00 C 1290.32 187.01 1281.64 186.96 1272.97 187.04 C 1271.03 187.06 1269.06 186.99 1267.27 186.23 C 1266.30 186.12 1265.35 186.03 1264.42 185.94 C 1262.96 184.48 1261.50 183.02 1260.05 181.58 C 1259.96 180.29 1259.88 179.01 1259.81 177.74 C 1259.14 176.26 1258.93 174.66 1258.97 173.06 C 1259.01 161.03 1259.02 148.99 1258.98 136.96 C 1259.02 134.06 1258.61 131.03 1259.77 128.28 C 1259.85 127.33 1259.94 126.38 1260.04 125.44 C 1261.24 123.47 1262.71 121.68 1264.33 120.03 C 1264.82 119.96 1265.80 119.81 1266.28 119.73 C 1268.75 118.76 1271.44 118.98 1274.06 118.97 C 1282.37 119.04 1290.68 118.98 1299.00 119.00 C 1299.11 101.92 1298.77 84.82 1299.17 67.75 C 1300.27 65.06 1299.82 62.06 1300.65 59.30 C 1300.95 57.64 1301.24 55.98 1301.64 54.34 C 1301.95 53.02 1302.26 51.70 1302.63 50.39 C 1303.01 49.38 1303.41 48.37 1303.84 47.37 C 1303.90 46.91 1304.02 45.99 1304.07 45.53 C 1304.68 44.51 1305.29 43.49 1305.93 42.48 C 1305.98 41.99 1306.09 41.03 1306.14 40.55 C 1306.86 39.18 1307.56 37.79 1308.25 36.39 C 1309.23 34.67 1310.31 33.00 1311.36 31.31 C 1311.67 30.89 1312.30 30.06 1312.62 29.64 C 1313.82 27.84 1315.18 26.15 1316.36 24.32 C 1319.79 20.09 1324.31 16.99 1328.52 13.59 C 1329.50 12.95 1330.51 12.31 1331.54 11.68 C 1332.48 11.22 1333.45 10.75 1334.42 10.29 C 1334.94 10.03 1335.97 9.51 1336.49 9.26 C 1337.76 8.61 1339.06 7.96 1340.36 7.31 C 1340.91 7.05 1342.01 6.52 1342.56 6.25 C 1343.58 5.92 1344.61 5.58 1345.64 5.22 C 1346.07 5.11 1346.92 4.89 1347.35 4.77 C 1349.10 4.22 1350.89 3.78 1352.66 3.22 C 1353.53 3.06 1354.41 2.90 1355.32 2.75 C 1357.42 2.18 1359.58 1.82 1361.70 1.27 C 1363.82 1.04 1366.01 0.89 1368.02 0.00 Z" />
<path fill="#8257e5" opacity="1.00" d=" M 71.25 22.81 C 74.32 21.48 77.73 22.10 80.97 21.99 C 159.31 22.01 237.66 22.00 316.00 21.99 C 317.30 22.01 318.55 22.29 319.75 22.83 C 322.75 23.05 325.84 22.69 328.73 23.71 C 330.73 23.96 332.75 24.13 334.70 24.66 C 336.35 24.97 338.01 25.25 339.66 25.62 C 340.99 25.98 342.33 26.34 343.65 26.75 C 344.08 26.86 344.94 27.09 345.36 27.20 C 346.37 27.59 347.38 27.97 348.40 28.34 C 349.44 28.65 350.48 28.96 351.52 29.25 C 353.52 30.27 355.53 31.28 357.56 32.27 C 358.51 32.74 359.47 33.21 360.43 33.68 C 361.85 34.56 363.24 35.50 364.68 36.37 C 365.11 36.67 365.97 37.28 366.40 37.59 C 368.90 39.43 371.30 41.41 373.73 43.33 C 375.92 45.47 377.48 48.16 379.61 50.36 C 381.00 52.37 382.52 54.29 383.82 56.36 C 384.05 56.88 384.49 57.92 384.72 58.44 C 385.22 59.49 385.74 60.53 386.26 61.57 C 386.75 62.52 387.24 63.46 387.74 64.41 C 387.99 64.95 388.49 66.03 388.74 66.57 C 389.07 67.60 389.41 68.62 389.78 69.64 C 389.90 70.07 390.15 70.91 390.27 71.34 C 390.66 72.66 390.99 74.01 391.33 75.35 C 391.70 76.67 392.01 78.01 392.33 79.35 C 392.83 81.48 393.17 83.64 393.81 85.73 C 394.04 88.41 393.68 91.23 394.84 93.75 C 395.22 122.15 394.89 150.56 395.00 178.97 C 394.89 210.73 395.22 242.50 394.84 274.25 C 393.43 277.24 394.51 280.69 393.25 283.72 C 393.08 284.91 392.93 286.12 392.79 287.32 C 392.23 289.08 391.80 290.87 391.30 292.65 C 390.98 293.99 390.65 295.34 390.25 296.67 C 390.16 297.13 389.99 298.03 389.90 298.49 C 389.29 299.50 388.67 300.51 388.06 301.53 C 388.03 302.00 387.96 302.95 387.92 303.43 C 387.62 303.96 387.01 305.04 386.71 305.57 C 386.22 306.52 385.73 307.47 385.25 308.42 C 385.02 308.95 384.57 310.01 384.34 310.53 C 383.69 311.50 383.02 312.46 382.35 313.42 C 381.72 314.45 381.06 315.46 380.42 316.49 C 378.63 318.98 376.35 321.06 374.53 323.53 C 371.59 325.56 369.42 328.49 366.40 330.43 C 365.97 330.73 365.10 331.33 364.67 331.63 C 363.24 332.51 361.85 333.45 360.42 334.33 C 358.81 335.10 357.20 335.88 355.62 336.69 C 355.08 336.97 354.00 337.51 353.46 337.78 C 352.47 338.04 351.49 338.31 350.52 338.60 C 350.00 338.93 348.97 339.59 348.45 339.92 C 348.00 339.99 347.10 340.13 346.65 340.21 C 344.89 340.77 343.10 341.22 341.34 341.78 C 340.45 341.94 339.57 342.10 338.70 342.28 C 337.05 342.74 335.37 343.03 333.70 343.35 C 331.23 343.92 328.66 343.99 326.25 344.82 C 323.25 345.11 320.07 344.55 317.25 345.84 C 306.83 346.21 296.39 345.90 285.96 346.00 C 234.30 345.98 182.64 346.04 130.98 345.97 C 129.39 345.95 127.81 346.19 126.30 346.66 C 124.64 346.96 122.98 347.24 121.34 347.62 C 120.00 347.98 118.66 348.34 117.34 348.77 C 116.90 348.85 116.02 349.02 115.57 349.11 C 115.05 349.41 114.00 350.00 113.47 350.30 C 112.95 350.54 111.89 351.03 111.37 351.27 C 106.95 353.59 102.33 356.30 99.58 360.60 C 99.28 361.03 98.67 361.89 98.37 362.32 C 97.31 364.03 96.21 365.72 95.18 367.45 C 94.92 368.50 94.64 369.55 94.35 370.60 C 93.98 371.61 93.60 372.62 93.22 373.64 C 93.07 374.06 92.79 374.90 92.65 375.32 C 91.82 378.07 92.28 381.06 91.17 383.75 C 90.81 391.34 91.07 398.94 91.01 406.54 C 89.54 408.93 87.64 411.01 85.61 412.95 C 85.14 413.03 84.19 413.20 83.71 413.28 C 82.19 413.83 80.58 414.05 78.97 414.03 C 54.80 413.97 30.63 414.00 6.45 414.01 C 3.74 412.41 1.26 410.28 0.00 407.32 L 0.00 88.79 C 1.12 86.95 1.00 84.76 1.26 82.71 C 1.83 80.61 2.17 78.46 2.68 76.35 C 2.98 75.03 3.28 73.70 3.62 72.38 C 4.02 71.37 4.43 70.37 4.85 69.37 C 4.90 68.91 5.02 67.99 5.07 67.53 C 5.69 66.51 6.31 65.49 6.94 64.47 C 6.98 64.00 7.06 63.06 7.09 62.58 C 7.38 62.04 7.95 60.96 8.23 60.42 C 9.21 58.74 10.26 57.10 11.25 55.44 C 12.01 54.10 12.78 52.78 13.57 51.46 C 15.63 48.58 18.44 46.36 20.48 43.47 C 24.41 40.34 27.96 36.66 32.42 34.25 C 34.15 33.24 35.83 32.14 37.51 31.05 C 37.99 31.02 38.95 30.96 39.43 30.92 C 39.96 30.62 41.02 30.01 41.55 29.71 C 42.53 29.23 43.52 28.74 44.50 28.26 C 45.55 27.93 46.60 27.59 47.64 27.23 C 48.07 27.11 48.92 26.85 49.34 26.73 C 50.67 26.33 52.01 26.00 53.35 25.68 C 54.68 25.30 56.01 24.96 57.34 24.61 C 59.29 24.14 61.29 23.96 63.27 23.71 C 65.84 22.81 68.58 23.00 71.25 22.81 M 117.54 96.08 C 115.60 97.73 112.85 96.73 110.54 97.10 C 109.06 98.17 107.13 97.96 105.50 98.65 C 104.10 99.12 102.73 99.65 101.35 100.17 C 97.88 101.95 95.10 104.94 93.65 108.58 C 93.31 109.54 92.99 110.51 92.67 111.49 C 91.30 113.65 92.85 116.58 91.08 118.54 C 90.89 181.36 91.06 244.19 91.00 307.02 L 91.64 306.97 C 96.60 297.99 104.04 290.38 112.56 284.71 C 114.32 283.86 115.90 282.71 117.55 281.68 C 118.91 281.03 120.26 280.35 121.59 279.65 C 122.55 279.30 123.52 278.98 124.50 278.68 C 125.49 278.32 126.49 277.99 127.50 277.68 C 128.49 277.32 129.49 276.99 130.50 276.68 C 131.49 276.33 132.48 275.99 133.49 275.67 C 134.74 275.07 136.12 274.98 137.47 274.77 C 138.94 273.74 140.78 274.05 142.47 273.85 C 144.79 272.22 147.82 273.30 150.46 272.92 C 150.86 272.70 151.67 272.27 152.07 272.05 C 189.71 271.94 227.35 272.00 264.99 272.03 C 266.53 271.92 268.34 272.37 269.54 271.08 C 272.84 270.93 276.15 271.07 279.46 270.92 C 281.14 269.43 283.62 270.42 285.51 269.34 C 286.90 268.90 288.27 268.35 289.62 267.79 C 290.55 267.27 291.49 266.78 292.44 266.31 C 295.30 264.72 297.62 262.21 299.36 259.47 C 300.13 257.86 300.86 256.23 301.32 254.51 C 301.93 253.26 302.01 251.87 302.22 250.53 C 304.03 248.14 301.89 244.71 303.92 242.46 C 304.05 203.49 304.05 164.51 303.92 125.54 C 301.73 122.98 304.16 119.18 302.23 116.48 C 302.17 113.89 300.87 111.64 299.76 109.38 C 297.87 105.34 294.11 102.69 290.55 100.24 C 289.46 100.04 288.44 99.69 287.47 99.18 C 286.99 99.09 286.02 98.91 285.53 98.82 C 284.10 97.68 282.21 98.07 280.54 97.84 C 277.59 95.64 273.34 98.40 270.46 96.08 C 219.49 95.94 168.51 95.94 117.54 96.08 Z" />
<path fill="#8257e5" opacity="1.00" d=" M 456.49 119.69 C 457.87 118.82 459.50 118.99 461.05 118.97 C 478.38 119.05 495.71 118.95 513.04 119.02 C 514.68 118.91 515.99 120.07 517.44 120.66 C 519.24 121.41 520.55 122.82 521.44 124.53 C 521.87 125.62 522.06 126.76 522.02 127.93 C 521.97 141.62 522.01 155.31 522.00 169.00 L 522.80 169.00 C 522.91 167.82 523.21 166.69 523.68 165.61 C 524.68 163.60 525.36 161.46 526.21 159.39 C 526.71 158.45 527.21 157.51 527.71 156.57 C 528.53 155.17 529.46 153.84 530.26 152.43 C 533.10 147.13 537.48 142.93 541.73 138.75 C 544.72 135.30 548.82 133.19 552.56 130.69 C 553.51 130.22 554.45 129.75 555.40 129.27 C 556.47 128.75 557.53 128.21 558.62 127.69 C 559.86 127.22 561.12 126.80 562.36 126.29 C 564.05 125.53 565.80 124.90 567.51 124.18 C 568.00 124.09 568.98 123.91 569.47 123.82 C 570.62 122.92 572.11 123.03 573.47 122.78 C 574.93 121.73 576.78 122.05 578.46 121.85 C 580.47 120.07 583.59 121.97 585.54 120.08 C 588.17 119.97 590.81 120.03 593.46 119.92 C 593.84 119.70 594.60 119.27 594.98 119.05 C 605.68 118.89 616.39 119.08 627.09 118.97 C 628.87 119.03 630.78 118.72 632.42 119.63 C 634.44 120.60 636.44 121.67 637.99 123.33 C 638.02 123.87 638.09 124.93 638.12 125.47 C 638.33 125.84 638.74 126.59 638.95 126.96 C 639.04 144.31 639.04 161.66 638.95 179.00 C 638.74 179.38 638.32 180.15 638.11 180.53 C 638.09 181.07 638.03 182.14 638.00 182.68 C 636.87 183.67 635.74 184.64 634.47 185.43 C 633.47 185.72 632.48 186.01 631.50 186.30 C 629.82 187.35 627.79 186.94 625.93 187.02 C 613.47 187.02 601.00 186.90 588.54 187.08 C 586.90 188.59 584.53 187.81 582.54 188.11 C 580.83 189.63 578.27 188.42 576.48 189.78 C 575.11 190.04 573.62 189.93 572.47 190.82 C 571.98 190.91 571.00 191.10 570.52 191.19 C 568.52 192.01 566.46 192.65 564.58 193.70 C 563.24 194.37 561.91 195.04 560.59 195.71 C 558.32 196.60 556.32 197.95 554.63 199.69 C 548.09 204.10 543.12 210.56 539.23 217.38 C 538.03 219.68 537.16 222.12 536.18 224.51 C 536.09 225.00 535.90 225.98 535.81 226.47 C 535.34 227.44 534.96 228.45 534.65 229.48 C 533.58 231.37 534.55 233.82 533.11 235.54 C 532.81 237.53 533.59 239.90 532.08 241.54 C 531.90 294.69 532.03 347.84 532.02 400.99 C 531.80 403.15 532.66 405.69 531.12 407.53 C 531.09 408.06 531.01 409.11 530.97 409.63 C 529.58 411.02 528.12 412.36 526.50 413.48 C 525.37 413.86 524.22 414.04 523.04 414.02 C 502.02 413.99 481.00 413.98 459.98 414.03 C 458.18 413.94 456.22 414.33 454.60 413.34 C 453.51 412.79 452.42 412.25 451.33 411.74 C 450.86 410.46 449.95 409.45 449.04 408.51 C 448.93 315.02 449.06 221.52 448.98 128.03 C 448.92 126.82 449.11 125.65 449.56 124.52 C 450.46 122.82 451.79 121.43 453.54 120.59 C 454.52 120.29 455.50 119.98 456.49 119.69 Z" />
<path fill="#8257e5" opacity="1.00" d=" M 747.46 119.92 C 747.83 119.70 748.58 119.27 748.95 119.05 C 804.45 118.98 859.96 118.93 915.46 119.08 C 918.67 121.09 922.85 119.47 926.46 120.08 C 928.39 121.97 931.52 120.06 933.54 121.85 C 935.20 122.05 937.05 121.72 938.53 122.78 C 939.86 123.04 941.37 122.92 942.53 123.82 C 943.02 123.92 944.00 124.10 944.49 124.19 C 946.18 124.90 947.92 125.53 949.62 126.28 C 951.58 127.03 953.57 127.71 955.46 128.65 C 957.07 129.74 958.68 130.86 960.45 131.71 C 961.93 132.44 963.15 133.58 964.38 134.69 C 970.64 138.74 975.08 145.02 978.78 151.40 C 979.01 151.91 979.47 152.93 979.70 153.43 C 979.95 153.93 980.47 154.91 980.73 155.40 C 981.23 156.47 981.77 157.54 982.30 158.62 C 982.79 159.92 983.24 161.24 983.81 162.51 C 983.90 163.00 984.09 163.98 984.18 164.47 C 985.06 165.62 984.95 167.12 985.22 168.47 C 986.27 169.94 985.93 171.78 986.15 173.46 C 987.52 175.16 986.83 177.46 987.11 179.46 C 989.65 183.66 986.32 189.36 988.92 193.54 C 989.06 242.51 989.05 291.49 988.92 340.46 C 986.86 344.00 988.57 348.52 987.92 352.46 C 985.88 354.71 988.03 358.15 986.22 360.53 C 985.96 361.87 986.04 363.34 985.22 364.53 C 984.95 365.87 985.07 367.38 984.18 368.53 C 984.09 369.02 983.90 369.98 983.81 370.47 C 983.32 371.44 982.95 372.45 982.68 373.51 C 982.05 375.54 981.32 377.55 980.30 379.42 C 977.70 385.14 973.34 389.71 969.81 394.80 C 964.70 398.31 960.15 402.73 954.40 405.29 C 953.91 405.54 952.92 406.06 952.43 406.31 C 951.10 406.80 949.76 407.24 948.49 407.81 C 947.99 407.90 947.00 408.08 946.51 408.17 C 945.17 408.75 943.80 409.24 942.49 409.83 C 942.00 409.92 941.02 410.09 940.53 410.18 C 939.10 411.33 937.20 410.92 935.54 411.15 C 934.12 412.35 932.20 411.91 930.54 412.15 C 928.21 413.78 925.17 412.69 922.55 413.08 C 921.02 414.56 918.78 413.84 916.92 414.02 C 860.25 413.98 803.59 413.98 746.93 414.02 C 745.09 413.86 742.93 414.54 741.46 413.09 C 739.15 412.99 736.84 413.01 734.54 412.91 C 733.19 411.59 731.20 412.11 729.54 411.85 C 728.39 410.90 726.87 411.03 725.52 410.77 C 723.95 409.87 722.00 410.15 720.47 409.19 C 719.98 409.09 719.00 408.91 718.51 408.81 C 716.82 408.09 715.09 407.47 713.39 406.78 C 711.17 405.52 708.86 404.42 706.55 403.33 C 697.84 398.41 690.60 391.15 685.67 382.45 C 685.03 381.09 684.37 379.75 683.72 378.41 C 682.83 376.86 682.06 375.23 681.72 373.47 C 681.21 372.13 680.76 370.78 680.18 369.49 C 680.09 369.00 679.92 368.02 679.83 367.53 C 678.91 366.38 679.03 364.87 678.78 363.52 C 677.71 362.06 678.05 360.20 677.85 358.53 C 676.31 356.53 677.23 353.85 676.91 351.54 C 675.61 350.32 676.07 348.50 675.97 346.95 C 676.09 292.15 675.87 237.34 676.08 182.54 C 677.73 180.60 676.73 177.85 677.09 175.54 C 678.67 173.86 677.40 171.27 678.77 169.47 C 678.97 168.12 679.06 166.74 679.67 165.49 C 679.98 164.48 680.32 163.49 680.67 162.50 C 680.98 161.53 681.32 160.57 681.69 159.63 C 682.81 157.32 683.47 154.82 684.65 152.54 C 687.08 149.00 689.14 145.18 692.21 142.14 C 693.56 139.93 695.16 137.84 697.53 136.64 C 700.06 134.47 702.61 132.30 705.55 130.66 C 706.06 130.44 707.07 129.99 707.58 129.76 C 708.51 129.25 709.45 128.75 710.40 128.25 C 711.47 127.74 712.54 127.21 713.63 126.70 C 714.92 126.19 716.23 125.74 717.51 125.19 C 718.00 125.09 718.98 124.91 719.47 124.82 C 720.44 124.34 721.44 123.95 722.49 123.64 C 724.12 122.99 726.01 123.12 727.53 122.15 C 728.50 122.05 729.48 121.95 730.47 121.86 C 732.76 119.87 736.29 122.17 738.54 120.08 C 741.51 119.95 744.48 120.05 747.46 119.92 M 782.54 187.08 C 780.59 188.95 777.50 187.11 775.47 188.82 C 774.98 188.92 774.01 189.10 773.52 189.20 C 772.22 189.77 770.87 190.18 769.53 190.62 C 766.61 192.30 764.60 195.08 762.17 197.33 C 762.02 198.87 761.40 200.27 760.69 201.62 C 759.60 203.37 760.09 205.51 759.89 207.46 C 759.68 207.84 759.26 208.60 759.05 208.99 C 758.98 247.81 758.93 286.64 759.08 325.46 C 760.58 327.14 759.55 329.63 760.67 331.51 C 760.98 332.48 761.30 333.44 761.65 334.41 C 763.03 338.73 766.91 341.16 770.55 343.40 C 771.52 343.71 772.50 344.02 773.49 344.33 C 775.36 345.45 777.86 344.39 779.54 345.92 C 782.81 346.48 786.65 344.96 789.54 346.92 C 818.03 347.07 846.54 347.02 875.03 346.95 C 875.41 346.73 876.16 346.30 876.54 346.08 C 879.50 345.95 882.48 346.05 885.46 345.91 C 886.93 344.84 888.86 345.01 890.51 344.35 C 891.47 344.02 892.43 343.69 893.40 343.35 C 896.71 342.00 899.63 339.63 901.32 336.45 C 902.09 334.75 903.07 333.15 903.74 331.40 C 904.18 329.76 903.66 327.82 904.91 326.46 C 905.05 286.49 905.06 246.51 904.91 206.54 C 903.83 205.06 904.02 203.12 903.32 201.50 C 903.01 200.51 902.70 199.52 902.40 198.54 C 900.51 196.17 899.50 192.82 896.44 191.67 C 895.06 191.04 893.72 190.35 892.42 189.63 C 891.19 189.05 889.82 188.98 888.52 188.77 C 886.72 187.41 884.13 188.66 882.46 187.08 C 849.16 186.94 815.84 186.95 782.54 187.08 Z" />
<path fill="#8257e5" opacity="1.00" d=" M 1515.47 119.50 C 1519.24 118.67 1523.12 119.04 1526.95 119.00 C 1542.95 118.99 1558.95 119.01 1574.96 118.99 C 1578.19 119.06 1581.56 118.58 1584.69 119.72 C 1585.16 119.80 1586.10 119.97 1586.57 120.05 C 1588.93 121.11 1590.31 123.27 1591.52 125.47 C 1592.31 129.26 1591.95 133.15 1592.00 136.98 C 1591.99 184.97 1592.01 232.97 1591.99 280.96 C 1592.04 284.21 1591.57 287.59 1592.72 290.73 C 1592.93 292.69 1593.13 294.67 1593.55 296.61 C 1593.96 297.62 1594.40 298.63 1594.87 299.63 C 1594.92 300.11 1595.01 301.07 1595.06 301.55 C 1595.44 302.00 1596.21 302.91 1596.59 303.36 C 1598.18 306.56 1601.26 308.45 1604.48 309.75 C 1605.52 310.06 1606.58 310.39 1607.65 310.75 C 1608.06 310.90 1608.90 311.21 1609.32 311.36 C 1612.07 312.16 1615.05 311.73 1617.75 312.83 C 1638.17 313.24 1658.61 312.85 1679.05 313.03 C 1681.61 313.01 1684.29 313.25 1686.74 312.24 C 1689.04 312.04 1691.39 311.98 1693.67 311.40 C 1694.98 311.02 1696.31 310.66 1697.66 310.26 C 1698.08 310.14 1698.93 309.90 1699.36 309.78 C 1700.36 309.42 1701.38 309.07 1702.43 308.75 C 1702.96 308.49 1704.02 307.97 1704.54 307.71 C 1705.06 307.48 1706.08 307.03 1706.60 306.80 C 1707.90 306.01 1709.21 305.20 1710.54 304.39 C 1713.58 302.23 1716.27 299.55 1718.43 296.48 C 1719.02 295.48 1719.67 294.48 1720.29 293.46 C 1720.78 292.51 1721.29 291.55 1721.83 290.61 C 1722.57 288.55 1723.15 286.43 1723.78 284.33 C 1723.92 283.45 1724.08 282.58 1724.29 281.70 C 1725.05 279.46 1725.01 277.07 1725.23 274.74 C 1726.46 271.64 1725.91 268.24 1726.01 264.99 C 1725.98 227.02 1726.01 189.04 1726.00 151.07 C 1726.22 142.19 1725.52 133.27 1726.38 124.42 C 1727.71 122.67 1729.35 121.15 1731.38 120.22 C 1731.94 119.92 1733.05 119.34 1733.60 119.05 C 1756.25 118.93 1778.90 119.05 1801.55 118.99 C 1804.24 120.59 1806.73 122.71 1808.00 125.68 L 1808.00 455.20 C 1806.50 457.80 1807.26 460.93 1806.35 463.70 C 1806.01 465.35 1805.73 467.01 1805.36 468.66 C 1805.01 469.97 1804.70 471.29 1804.37 472.61 C 1803.96 473.61 1803.57 474.62 1803.19 475.63 C 1803.09 476.06 1802.88 476.92 1802.77 477.35 C 1802.40 478.39 1802.07 479.45 1801.78 480.51 C 1801.20 481.52 1800.64 482.54 1800.09 483.56 C 1800.04 484.02 1799.95 484.95 1799.90 485.42 C 1799.62 485.96 1799.05 487.04 1798.77 487.58 C 1797.77 489.26 1796.72 490.89 1795.77 492.58 C 1793.22 496.98 1789.71 500.69 1786.67 504.73 C 1783.69 507.38 1780.54 509.85 1777.51 512.43 C 1776.46 513.04 1775.46 513.66 1774.44 514.26 C 1772.11 515.62 1769.86 517.09 1767.45 518.28 C 1766.43 518.81 1765.43 519.34 1764.45 519.90 C 1763.98 519.95 1763.03 520.04 1762.55 520.09 C 1761.52 520.65 1760.51 521.21 1759.51 521.78 C 1758.43 522.08 1757.38 522.41 1756.36 522.76 C 1755.93 522.89 1755.08 523.15 1754.66 523.28 C 1753.31 523.66 1751.96 523.99 1750.64 524.32 C 1749.30 524.70 1747.97 525.03 1746.66 525.39 C 1744.70 525.86 1742.69 526.04 1740.73 526.29 C 1738.47 527.06 1736.06 527.03 1733.74 527.23 C 1730.62 528.48 1727.21 527.91 1723.96 528.01 C 1675.65 527.99 1627.33 528.00 1579.02 528.01 C 1577.69 527.98 1576.44 527.71 1575.26 527.19 C 1573.06 527.03 1570.89 526.96 1568.73 526.82 C 1566.63 526.16 1564.46 525.83 1562.36 525.33 C 1561.01 525.02 1559.69 524.72 1558.39 524.37 C 1557.36 523.98 1556.35 523.58 1555.37 523.18 C 1554.94 523.09 1554.07 522.89 1553.64 522.79 C 1552.60 522.42 1551.58 522.07 1550.57 521.74 C 1550.02 521.48 1548.92 520.96 1548.37 520.69 C 1547.05 520.03 1545.75 519.37 1544.47 518.73 C 1543.47 518.26 1542.49 517.80 1541.52 517.35 C 1536.29 513.76 1531.33 509.63 1527.58 504.48 C 1526.90 503.45 1526.26 502.45 1525.64 501.43 C 1524.95 500.44 1524.29 499.47 1523.66 498.49 C 1523.20 497.51 1522.75 496.53 1522.31 495.57 C 1522.01 495.03 1521.40 493.96 1521.09 493.43 C 1521.03 492.98 1520.92 492.08 1520.86 491.63 C 1520.26 490.21 1519.73 488.78 1519.17 487.38 C 1519.06 486.95 1518.85 486.09 1518.74 485.66 C 1518.31 484.33 1517.97 482.99 1517.65 481.65 C 1517.15 479.52 1516.84 477.34 1516.17 475.27 C 1515.88 472.26 1516.43 469.08 1515.16 466.25 C 1515.02 458.32 1514.61 450.33 1515.38 442.43 C 1517.05 440.26 1519.07 438.37 1521.46 436.98 C 1540.32 437.02 1559.19 436.99 1578.06 437.00 C 1581.87 437.04 1585.75 436.68 1589.53 437.49 C 1591.33 438.52 1593.22 439.56 1594.35 441.41 C 1594.84 442.48 1595.37 443.55 1595.94 444.61 C 1596.20 448.63 1595.39 452.80 1596.71 456.70 C 1596.80 457.16 1596.97 458.09 1597.06 458.56 C 1598.48 461.29 1600.70 463.49 1603.44 464.94 C 1603.91 465.03 1604.84 465.20 1605.30 465.29 C 1607.53 466.05 1609.91 466.02 1612.25 466.23 C 1614.68 467.25 1617.36 467.01 1619.95 467.03 C 1642.05 466.85 1664.16 467.24 1686.25 466.84 C 1690.71 465.10 1695.62 466.46 1700.27 465.85 C 1702.34 465.15 1704.52 464.82 1706.66 464.29 C 1707.08 464.16 1707.93 463.88 1708.35 463.75 C 1709.39 463.41 1710.45 463.09 1711.54 462.80 C 1712.86 462.02 1714.19 461.22 1715.53 460.42 C 1717.48 459.16 1719.16 457.50 1720.40 455.51 C 1721.23 454.17 1722.07 452.83 1722.93 451.49 C 1723.00 451.03 1723.15 450.12 1723.22 449.66 C 1723.62 448.33 1724.01 447.00 1724.42 445.67 C 1725.10 442.89 1724.73 439.92 1725.83 437.25 C 1726.22 406.50 1725.89 375.74 1726.00 344.98 L 1725.46 345.02 C 1724.54 346.59 1723.57 348.12 1722.66 349.69 C 1722.35 350.11 1721.73 350.96 1721.42 351.39 C 1717.39 356.59 1712.57 361.26 1707.48 365.42 C 1706.43 366.07 1705.43 366.72 1704.43 367.36 C 1703.42 368.02 1702.45 368.69 1701.47 369.33 C 1700.47 369.79 1699.49 370.26 1698.54 370.73 C 1697.21 371.38 1695.91 372.03 1694.62 372.70 C 1694.08 372.96 1692.99 373.48 1692.44 373.75 C 1691.39 374.07 1690.36 374.42 1689.36 374.79 C 1688.92 374.89 1688.06 375.08 1687.63 375.18 C 1686.61 375.59 1685.60 375.98 1684.61 376.37 C 1683.28 376.72 1681.95 377.02 1680.65 377.32 C 1678.51 377.83 1676.35 378.16 1674.28 378.80 C 1672.41 378.94 1670.56 379.04 1668.74 379.21 C 1666.59 380.17 1664.21 380.03 1661.94 380.04 C 1632.88 379.84 1603.80 380.25 1574.75 379.83 C 1572.05 378.70 1569.05 379.18 1566.30 378.35 C 1564.62 378.03 1562.97 377.75 1561.34 377.36 C 1559.99 377.03 1558.65 376.70 1557.35 376.34 C 1555.99 375.99 1554.64 375.65 1553.33 375.24 C 1552.88 375.16 1551.97 374.99 1551.52 374.91 C 1550.48 374.29 1549.47 373.68 1548.47 373.06 C 1547.99 373.03 1547.05 372.95 1546.57 372.92 C 1546.04 372.62 1544.97 372.01 1544.43 371.71 C 1543.47 371.22 1542.52 370.74 1541.59 370.26 C 1541.06 370.03 1540.00 369.56 1539.47 369.33 C 1538.48 368.70 1537.50 368.04 1536.57 367.39 C 1532.07 364.35 1527.86 360.86 1524.37 356.69 C 1523.00 354.64 1521.45 352.72 1520.23 350.60 C 1519.25 348.90 1518.21 347.26 1517.24 345.58 C 1516.95 345.04 1516.38 343.96 1516.09 343.42 C 1516.05 342.95 1515.97 342.01 1515.94 341.54 C 1515.30 340.51 1514.69 339.49 1514.09 338.48 C 1514.01 338.02 1513.84 337.12 1513.76 336.67 C 1513.33 335.34 1512.99 333.99 1512.66 332.65 C 1512.27 331.32 1511.95 329.99 1511.64 328.66 C 1511.23 327.01 1510.94 325.35 1510.65 323.70 C 1509.97 321.44 1509.94 319.07 1509.77 316.74 C 1508.51 313.64 1509.07 310.23 1508.99 306.98 C 1509.02 246.48 1508.98 185.98 1509.01 125.47 C 1509.40 125.02 1510.17 124.10 1510.56 123.65 C 1511.60 121.65 1513.56 120.55 1515.47 119.50 Z" />
</g>
</svg>
